<?xml version="1.0" standalone="no"?><!DOCTYPE svg PUBLIC "-//W3C//DTD SVG 1.1//EN" "http://www.w3.org/Graphics/SVG/1.1/DTD/svg11.dtd"><svg t="1693905108153" class="icon" viewBox="0 0 1024 1024" version="1.1" xmlns="http://www.w3.org/2000/svg" p-id="2445" xmlns:xlink="http://www.w3.org/1999/xlink" width="200" height="200"><path d="M469.333 213.333v-42.666a42.667 42.667 0 0 1 85.334 0v42.666H768A170.667 170.667 0 0 1 938.667 384v384a85.333 85.333 0 0 1-85.334 85.333H823.34a170.667 170.667 0 0 1-97.75-30.72c-92.842-64.853-164.01-97.28-213.589-97.28-49.579 0-120.747 32.427-213.59 97.28a170.667 170.667 0 0 1-97.706 30.72h-30.037A85.333 85.333 0 0 1 85.333 768V384A170.667 170.667 0 0 1 256 213.333h213.333zM384 448v-42.667a42.667 42.667 0 1 0-85.333 0V448H256a42.667 42.667 0 0 0 0 85.333h42.667V576A42.667 42.667 0 0 0 384 576v-42.667h42.667a42.667 42.667 0 0 0 0-85.333H384z m298.667-85.333a42.667 42.667 0 1 0 0 85.333 42.667 42.667 0 0 0 0-85.333zM597.333 448a42.667 42.667 0 1 0 0 85.333 42.667 42.667 0 0 0 0-85.333zM768 448a42.667 42.667 0 1 0 0 85.333A42.667 42.667 0 0 0 768 448z m-85.333 85.333a42.667 42.667 0 1 0 0 85.334 42.667 42.667 0 0 0 0-85.334z" p-id="2446"></path></svg>